<svg xmlns="https://www.w3.org/2000/svg" width="1024" height="1024" viewBox="0 0 1024 1024">
  <metadata><?xpacket begin="﻿" id="W5M0MpCehiHzreSzNTczkc9d"?>
<x:xmpmeta xmlns:x="adobe:ns:meta/" x:xmptk="Adobe XMP Core 5.6-c138 79.159824, 2016/09/14-01:09:01        ">
   <rdf:RDF xmlns:rdf="https://www.w3.org/1999/02/22-rdf-syntax-ns#">
      <rdf:Description rdf:about=""/>
   </rdf:RDF>
</x:xmpmeta>
                                                                                                    
                                                                                                    
                                                                                                    
                                                                                                    
                                                                                                    
                                                                                                    
                                                                                                    
                                                                                                    
                                                                                                    
                                                                                                    
                                                                                                    
                                                                                                    
                                                                                                    
                                                                                                    
                                                                                                    
                                                                                                    
                                                                                                    
                                                                                                    
                                                                                                    
                                                                                                    
                           
<?xpacket end="w"?></metadata>
<defs>
    <style>
      .cls-1 {
        fill-rule: evenodd;
      }
    </style>
  </defs>
  <path id="形状_4" data-name="形状 4" class="cls-1" d="M970.763,11.155v2l5,1v2l5,1v2l4,1v2c1.486,0.787,6.082,2.8,7,4v2h1l4,5h2v3c1.664,1,3.334,2,4.994,3v3l3,2v3l3,2v3c0.67,0.333,1.34.667,2,1v2h1v2h1v3c0.67,0.333,1.34.667,2,1v3h1v3h1v3h1v4h1v4h1v5h1v8c4.39,15.262,1,37.706,1,55.993V862.051q0.5,32.493,1,64.992h-1v6h-1v8h-1v5h-1v4h-1v4h-1q-0.99,4.5-2,9c-0.66.333-1.33,0.666-2,1v3h-1c-0.33,1.333-.66,2.667-1,4h-2v4l-3,1v4l-3,1v3c-2.12,1.212-2.17,2.252-4.994,3v3c-2.415,1.346-3.137,3.6-5,5l-3,1q-0.5,1.5-1,3h-3c-0.738,3.216-1.357,3.646-5,4-0.8,3.51-1.772,3.91-6,4-0.826,3.2-1.179,2.91-5,3v2l-9,3c-0.333.67-.666,1.34-1,2l-26.993,6h-797.8c-14.669.02-32.9,2.78-45.989-1h-8v-1h-5v-1h-4v-1h-4v-1h-3v-1h-4c-0.333-.66-0.667-1.33-1-2h-2v-1q-2.5-.495-5-1v-1h-2c-0.333-.66-0.666-1.33-1-2h-3l-2-3h-3v-1a13.9,13.9,0,0,0-6-3c-0.738-3.213-1.357-3.637-5-4v-2c-3.494-2.058-4.639-5.82-9-7v-3c-1.8-.945-1.574-1.385-4-2v-3H18c-1.139-1.138,0-.4-2-1l-1-5H13l-1-5H10l-4-12H5v-3H4v-3H3v-4H2v-4H1v-5H0V85.146H1v-5H2v-4H3v-4H4v-5H5v-3l2-1v-3H8v-3H9v-2h1v-2l3-2v-3l3-2v-3l3-2v-2h1c1.37-1.483.506-1.32,3-2v-3c3.15-1.855,4.02-4.924,8-6,0.738-3.216,1.357-3.641,5-4v-2h1l1-2h2l2-3h2v-1h2l1-2,4-1,1-2h2v-1l4-1v-1h3v-1h3v-1h3v-1h3c16.8-6.608,42.424-5,65.984-5H930.773v1h8v1h6v1h4v1h4C958.374,6.17,964,10.378,970.763,11.155ZM38.991,961.039h2v3h2v3h2l7,8,2,1,1,3h3l2,3h2l1,2,5,1,1,2h3v1h2l1,2h5v1l10,1v1h7v1l53.987-1H934.772v-1l9-1v-1h4l1-2,5-1,1-2,5-1,2-3h2l1-2h2l5-7h2l1-2,4-3v-2l3-2v-2l2-1q0.5-2.5,1-5l2-1q0.5-2.5,1-5l2-1q0.5-5.5,1-11c5.294-17.337,2-40.741,2-61.993V88.146h-1v-4h-1v-4h-1v-4l-2-1q-0.5-3-1-6h-2q-0.5-2.5-1-5l-3-2v-2l-2-1v-3l-3-1-1-2c-3.107-2.965-5.99-4.823-8-9h-3v-2h-3v-2l-5-1v-1h-2q-0.5-1-1-2h-3v-1l-4-1v-1h-4v-1h-4v-1h-5v-1H88.978v1l-11,2v1h-4v1l-6,2v1h-2v1l-4,1v1l-3,1-1,2h-2l-1,2-6,5v2l-3,1v1l-3,2v2l-2,1v2l-2,1v3l-2,1v2h-1v2h-1v3l-2,1-3,9v8h-1v840.9h1v4h1v4h1v5h1v2l2,1v3h1Zm528.871-847.9v2l9,2v2h5v2h5v2c5.889,0.283,7.27,3.292,13,4v2c8.288,0.653,12.393,6.022,20,7v2c4.16,0.148,4.72,1.259,8,2v2c6.152,0.182,8.748,2.87,14,4v2c6.152,0.209,9.84,3.643,15,5v2c5.711,0.022,7.92,1.932,12,3v2h5v2c8.217,0.305,12.55,6.03,20,7v2l7,1v2h6v2h4v2l6,1v2l7,1v2l7,1v2l6,1v2l9,2v2l7,1v2l7,1v2l7,1v2h5c1.325,3.091,1.5,3.851,6,4v1h5v2h3v2h5v2c5.5,0.5,8.275,3.342,14,4v2l6,1v2c4.975,0.479,6.463,2.648,12,3v2l11,4v1h3v1h2v1h3q0.5,1,1,2l6,1q0.5,1.5,1,3h3a39.243,39.243,0,0,0,3,8h1v12h1q-0.5,14-1,28V763.063c0,3.371.589,8.17-1,10-1.139,1.138,0,.4-2,1q-2,6-4,12a12.881,12.881,0,0,0-6,3v1l-6,1-2,3h-3v1h-2v1h-5l-2,3-7,1v2l-7,1v2l-5,1q-0.5,1-1,2l-5,1v1h-3q-0.5,1-1,2l-6,1-1,2-6,1q-0.5,1-1,2h-3v1h-2q-0.5,1-1,2h-4q-0.5,1-1,2h-3v1h-2v1l-6,1-1,2h-2v1h-4l-2,3h-3v1h-2v1h-3q-0.5,1-1,2h-5l-1,2-9,3-1,2h-3v1h-2v1h-3q-0.5,1-1,2h-3v1h-2v1h-2l-1,2-8,1q-0.5,1-1,2l-3,1v1h-3v1h-2v1l-6,1-1,2-6,1q-0.5,1-1,2h-3l-1,2h-3v1h-2v1h-3l-1,2-6,1-1,2h-3l-1,2h-3v1h-2v1h-3l-1,2-6,1-1,2h-3q-0.5,1-1,2h-5l-2,3h-4q-0.5,1-1,2h-3q-0.5,1-1,2l-6,1q-0.5,1-1,2h-3v1h-2v1h-3q-0.5,1-1,2l-6,1-1,2h-3v1h-3l-1,2-5,1-1,2h-2v1l-9,2q-0.5,1-1,2h-3l-1,2h-3v1h-2v1l-6,1q-0.5,1-1,2h-2v1h-3q-0.5,1-1,2h-3v1h-2v1h-3l-1,2h-4q-0.5,1-1,2h-2v1h-4v1h-2v1h-2l-1,2h-3v1l-4,1v1h-4v1c-5.087,1.493-6.557-1.751-11-2v-2c-4.347-.484-6.183-2.48-11-3v-2l-5-1q-0.5-1-1-2h-4v-1h-2v-1h-2q-0.5-1-1-2h-3v-1h-3q-0.5-1-1-2h-5c-0.054-.018.073-0.584-2-1v-2l-5-1-1-2h-4l-1-2h-5c-0.053-.018.073-0.588-2-1v-2h-5v-2c-3.478-.725-4.348-1.856-9-2v-2c-5.3-.263-5.748-2.394-11-3v-2c-2.918-.682-2.425-1.749-3-2h-6l-1-2-7-1v-2c-3.3-.683-3.838-1.753-8-2v-2l-5-1q-0.5-1-1-2h-4v-1h-2q-0.5-1-1-2h-4v-1h-2l-1-2-7-1v-2c-8.846-1.61-15.195-8.3-24.994-9v-2c-7.616-.836-11.586-6.4-19.995-7v-2l-5-1-1-2-6-1-1-2-6-1q-0.5-1-1-2l-7-1v-2a34.547,34.547,0,0,0-7-1v-2c-6.113-1.171-7.817-4.695-15-5v-2l-6-1-1-2-6-1-1-2h-3v-1h-2v-1h-3q-0.5-1-1-2h-3q-0.5-1-1-2l-6-1-1-2h-3v-1h-2v-1h-3q-0.5-1-1-2h-3l-1-2-6-1v-1h-2l-1-2-6-1q-0.5-1-1-2l-6-1q-0.5-1-1-2l-6-1v-1h-2q-0.5-1-1-2h-3q-0.5-1-1-2l-6-1v-1h-2v-1h-3l-1-2h-3q-0.5-1-1-2a24.568,24.568,0,0,0-6-4v-7h-1V275.123c0-14.141-1.833-30.658,7-36v-1h4v-1h2l1-2h3v-1h3v-1l4-1v-1h2q0.5-1,1-2h4l1-2,6-1v-1h2q0.5-1,1-2h3v-1h3v-1l4-1v-1h2q0.5-1,1-2h4l1-2,6-1v-1h2q0.5-1,1-2l6-1v-1h2q0.5-1,1-2h3v-1l5-1q0.5-1,1-2l6-1v-1h2q0.5-1,1-2h2v-1l6-1v-1h2l1-2h3v-1h3v-1l4-1v-1h2v-1h3v-1h2l1-2,6-1v-1h2l1-2h3v-1h3v-1l4-1v-1h2q0.5-1,1-2h4q0.5-1,1-2l6-1v-1h2q0.5-1,1-2l6-1v-1l4-1v-1h2q0.5-1,1-2h4l1-2,6-1v-1h2q0.5-1,1-2c1.959-1.037,6.01-.817,8-2q0.5-1,1-2l6-1v-1h2q0.5-1,1-2l6-1v-1h2l1-2,6-1q0.5-1,1-2h3v-1h2v-1h3q0.5-1,1-2h3v-1h2v-1h3v-1h2v-1h2v-1h2v-1h3q0.5-1,1-2h3v-1h2v-1h3l1-2h2v-1h3v-1h2v-1h3v-1l4-1v-1h2v-1h3q0.5-1,1-2h3v-1h2v-1h3q0.5-1,1-2h3l1-2h4v-1l6-2v-1h3q0.5-1,1-2h3v-1h2v-1h3l1-2h3v-1h2v-1h3q0.5-1,1-2h3v-1h2v-1h3l1-2h3v-1l5-1v-1h2q0.5-1,1-2h6v1l6,1v1l4,1v1h2q0.5,1,1,2l4,1v1l7,1,1,2,6,1q0.5,1,1,2h3l1,2h3q0.5,1,1,2h4q0.5,1,1,2l6,1v1C565.3,112.986,565.578,112.829,567.861,113.142ZM193.953,751.065c5.456,0.036,7.721-.93,11-3q0.5-1,1-2l8-1,3-4,8-1q0.5-1,1-2h3l1-2h3v-1h2v-1h3q0.5-1,1-2h3q0.5-1,1-2h3l1-2c2.014-1.044,5.975-.808,8-2q0.5-1,1-2h4l1-2,6-1v-1h2q0.5-1,1-2l5-1q0.5-1,1-2l9-2v-1h2q0.5-1,1-2h4v-1h2l1-2h3q0.5-1,1-2h2v-1l5-1V386.109h1v-5h1c1.816-2.554,4.051-3.554,5-7l5-1,1-2h5v-1l6-2v-1h3l1-2h3q0.5-1,1-2l6-1q0.5-1,1-2h3v-1h2v-1h3q0.5-1,1-2h3v-1h2v-1h3l1-2h4q0.5-1,1-2h2v-1h3q0.5-1,1-2c2.01-1.044,5.979-.809,8-2l1-2h4l1-2h2v-1l6-1,1-2h3v-1h2v-1l5-1,2-3h4l1-2h5l1-2,10-3,1-2h3q0.5-1,1-2l6-1q0.5-1,1-2h3v-1h2v-1h3q0.5-1,1-2h3v-1h2v-1h3l1-2h4l2-3h4q0.5-1,1-2l6-1,1-2,6-1,2-3,9-3V128.141h-1v1h-3q-0.5,1-1,2h-3q-0.5,1-1,2h-3v1h-2v1h-3l-1,2-6,1q-0.5,1-1,2l-6,1-1,2h-3l-1,2-5,1v1h-2v1h-4q-0.5,1-1,2h-3q-0.5,1-1,2h-3v1h-2v1h-3l-1,2-6,1q-0.5,1-1,2h-3v1h-2v1h-2l-1,2h-3v1h-2v1l-6,1-1,2h-3v1h-2v1l-4,1v1h-3v1h-2v1h-3v1h-2l-1,2h-3v1h-3l-1,2-6,1q-0.5,1-1,2h-3q-0.5,1-1,2h-3v1h-2v1h-3q-0.5,1-1,2l-6,1q-0.5,1-1,2l-6,1-1,2h-2v1h-3q-0.5,1-1,2l-9,2q-0.5,1-1,2h-3v1h-3q-0.5,1-1,2h-2v1h-3l-1,2-6,1q-0.5,1-1,2h-3v1h-3q-0.5,1-1,2h-2v1h-3l-1,2h-3v1h-2v1h-2q-0.5,1-1,2l-10,2q-0.5,1-1,2h-2v1h-3l-1,2h-3v1h-2v1h-3q-0.5,1-1,2l-6,1-1,2-6,1q-0.5,1-1,2h-4l-2,3h-5q-0.5,1-1,2h-3l-1,2c-2,1.2-5.99.959-8,2q-0.5,1-1,2h-3q-0.5,1-1,2l-6,1q-0.5,1-1,2l-6,1-1,2h-3v1h-2l-1,2c-2.515,1.367-2.967-.3-5,2h-1V751.065ZM524.872,128.141V544.09c4.373,0.824,5.928,2.674,11,3v2h4v2c2.566,0.123,3.484.117,5,1v1h4v1c1.436,0.846,1.718.683,4,1v2c9.506,0.763,13.753,7.319,22.994,8v2c2.912,0.175,10.609,2.549,12,4,1.139,1.139.4,0,1,2l7,1v2c6.933,0.591,8.919,4.493,16,5v2l7,1v2l7,1v2l6,1v2c6.561,0.625,8.667,4.514,16,5v2l7,1v2l6,1v2h5v2c4.374,0.824,5.929,2.674,11,3v2h6v2h3v2h6v2h4v2l7,1q1,2,2,4l3,1q0.5,2,1,4h1v3l2,1v3h1V704.07h4v2a34.629,34.629,0,0,0,7,1v2h5v2h4v2l9,2v2a29.294,29.294,0,0,1,7,1v2c8.44,1.66,13.695,7.373,23,8v2c5.213,0.994,6.853,3.62,13,4v2l7,1v2c4.564,0.889,5.415,2.784,11,3l1,3,9,1v2c5.351,1.151,6.355,3.752,14,4V261.124h-3v-2a29.4,29.4,0,0,1-7-1v-2h-5v-2l-9-2v-2l-7-1v-2l-6-1v-2c-5.549-.192-7.035-2.386-12-3v-2h-4v-2l-7-1v-2l-9-2v-2h-4v-2l-7-1v-2l-9-2v-2h-4v-2l-7-1v-2h-4v-2h-5v-2l-7-1v-2l-7-1v-2c-6.487-.283-6.795-3.509-13-4v-2c-4.894-.411-7.119-2.444-12-3v-2l-5-1-1-2h-4v-1h-2q-0.5-1-1-2h-4v-1h-2l-1-2h-4v-1c-1.541-.9-2.431-0.794-5-1v-2l-12-4-1-2h-4v-1l-6-2v-1h-2v-1h-3q-0.5-1-1-2h-4v-1h-2q-0.5-1-1-2l-9-2c-0.935-3.585-2.609-3.156-7-3v-2c-6.7-.314-9.278-4.216-16-5v-2l-5-1-1-2h-4v-1h-2q-0.5-1-1-2l-7-1v-2l-5-1-1-2h-4v-1h-2c-3.4-1.782-1.333-2.543-7-3v-2h-6c-0.936-3.586-2.609-3.156-7-3v-2A12.692,12.692,0,0,0,524.872,128.141ZM335.918,611.082h7l2-3h3l1-2h3v-1h3q0.5-1,1-2l6-1v-1h2l2-3h5q0.5-1,1-2l6-1,1-2h3v-1h2v-1h3l1-2h3l1-2,6-1q0.5-1,1-2h3v-1h2v-1h3l1-2h3v-1h2l1-2,6-1v-1h2v-1h3q1-1.5,2-3h5l1-2,6-1,1-2h3v-1h2q0.5-1,1-2l6-1,1-2,6-1v-1h2q0.5-1,1-2l6-1q0.5-1,1-2h3v-1h2v-1h3v-1h2l1-2h4l2-3,9-2V328.116c-4.182-.06-5.9.207-8,2q-0.5,1-1,2h-3v1h-3v1h-2v1h-3q-0.5,1-1,2h-4l-1,2h-3l-1,2h-4l-1,2-6,1q-0.5,1-1,2h-3q-0.5,1-1,2h-3v1h-2q-0.5,1-1,2l-5,1v1h-4q-0.5,1-1,2h-3q-0.5,1-1,2h-3v1h-2v1h-3q-0.5,1-1,2l-6,1-1,2h-3l-1,2h-3v1h-2v1h-3q-0.5,1-1,2l-6,1-1,2-6,1q-0.5,1-1,2h-3v1h-2v1h-3q-0.5,1-1,2h-3v1h-2q-0.5,1-1,2l-9,2-1,2h-3q-0.5,1-1,2l-11,3q-1,1.5-2,3c-1.775.99-7.045,0.414-8,2V611.082Zm311.924,63.992h4v2a34.636,34.636,0,0,0,7,1v2h5q0.5,1.5,1,3l7,1v2c4.829,0.41,6.348,2.431,11,3v-31h-1v1l-6,1-1,2h-3v1h-3l-1,2h-3l-1,2h-3v1h-2v1h-3l-1,2-6,1v1C647.7,674.213,648.443,673.078,647.842,675.074Zm-311.924-16v30l12-4q0.5-1,1-2l5-1,1-2h5q1-1.5,2-3l9-2v-2c-4.887-.19-6.118-1.694-11-2q-0.5-1.5-1-3c-6.96-.764-10.93-5.46-19-6q-0.5-1.5-1-3h-3Zm-4,137.983c-2.276.353-2.55,0.158-4,1v1h-4v1c-4.882,1.347-14.909-4.709-16-7v-4c-2.514-2.693-2-9.707-2-15v-38l-9,3v1h-3v1h-2v1h-2v1h-2v1h-3v1l-6,2v1l-5,1v1h-2v1l-4,1v1h-3v1h-2v1h-2v1h-2v1h-3v1h-2v1h-2v1l-4,1v1h-3v1h-2v1l-4,1v1h-3v1h-2v1h-2v1h-2v1h-3v1a39.774,39.774,0,0,1-8,3v2l3,1q0.5,1,1,2h4l1,2h3v1l5,1v1c1.523,0.921,2.44.811,5,1v2c9.848,0.759,15.375,7,23.994,9v2h5q0.5,1.5,1,3l9,1,1,2h2v1l4,1v1l6,1q0.5,1,1,2l5,1v2l9,2v2l9,2,1,2h4v1c1.139,1.139.4,0,1,2,2.91,0.031,9.7,1.715,11,3,1.139,1.139.4,0,1,2,9.243,0.328,14.632,6.8,23,8v2c8.6,0.289,12.346,6.006,20,7v2c5.54,0.2,6.535,2.218,10,4l6,1,1,2,6,1v1c1.438,0.846,1.719.675,4,1v2l5,1v1h4l1,2,12,4v2h5v2c5.641,0.431,8.094,2.94,13,4v2c2.57,0.08,3.49.141,5,1v1h5l1,2h3l1,2h5v1c1.138,1.139.4,0,1,2,7.421,0.341,10.853,5.107,18,6v2l7,1v2c4.651,0.037,5.544,1.217,9,2v2l11,3,1-2,6-1v-1h2v-1l5-1q0.5-1,1-2h3q0.5-1,1-2h5v-1h2q0.5-1,1-2h3q0.5-1,1-2l6-1q0.5-1,1-2h3v-1h2v-1h3l1-2h3v-1h2v-1h3l2-3h5q0.5-1,1-2h3v-1h2v-1h3q0.5-1,1-2h2v-1h2v-1h3v-1h2l1-2h3l1-2,8-1,3-4h5q0.5-1,1-2h3v-1h2v-1h3q0.5-1,1-2l6-1v-1h2v-1h3q1-1.5,2-3h4q0.5-1,1-2h3v-1h2v-1h3l1-2h3l1-2,6-1v-1h2q0.5-1,1-2l5-1q0.5-1,1-2h5l2-3,7-1,2-3h4q0.5-1,1-2h3q0.5-1,1-2l7-1v-1h2q0.5-1,1-2h3q0.5-1,1-2h3l1-2h5q0.5-1,1-2h3q0.5-1,1-2l6-1q0.5-1,1-2h3v-1h2q0.5-1,1-2h3v-1h3q0.5-1,1-2l6-1,1-2h3v-1h2v-1h3l1-2h4l1-2h3v-1h2l1-2,6-1v-1l5-1,1-2h3v-1h2v-1l6-1v-1c1.138-1.139.4,0,1-2h3v-2a11.883,11.883,0,0,0,5-1c-1.139-1.139,0-.4-2-1v-1h-3v-1h-2v-1h-2v-1h-2v-1h-3v-1h-2v-1l-4-1v-1h-3v-1l-4-1v-1h-3v-1h-2v-1l-4-1v-1h-3v-1h-2v-1h-2v-1h-2v-1l-5-1v-1l-4-1v-1h-3v-1h-2v-1l-4-1v-1h-3v-1h-2v-1h-2v-1h-2v-1h-3v-1h-2v-1l-11-4c0.065,16.176.375,34.421-1,48.994h-2c-0.644,2.739-1.309,2.276-2,5-2.3.306-2.545,0.185-4,1v1h-9l-1,1q-0.5-1-1-2l-6-2-1-4-3-1V722.068a15.675,15.675,0,0,0-6-1v-2l-6-1v-2l-7-1v-2l-7-1v-2h-4v-2c-6.153-.182-8.748-2.871-14-4v-2h-5v-2c-3.536-.287-4.883-1.349-8-2v-2c-5.549-.192-7.035-2.386-12-3v-2h-7q-0.5,1-1,2h-5l-1,2h-3l-1,2h-3l-1,2-6,1-1,2h-3v1h-2v1h-3q-0.5,1-1,2l-6,1q-0.5,1-1,2h-3l-1,2h-2v1l-6,1-1,2h-3v1h-2v1l-4,1v1l-6,1-1,2h-2v1h-3l-1,2h-3v1c-2.831,1.2-3-.257-5,2h-1V853.052c-1.361,1.165-1.528,1.824-2,4l-9,6h-10v-2l-3-1v-1c-2.566-1.781-1.912,1.083-3-3-5.419-4.838-3-23.217-3-33V728.067c-3.686-.7-5.269-1.855-10-2v-2h-4v-2c-7.308-.795-10.949-5.463-19-6v-2l-6-1v-2c-4.924-.506-4.76-2.606-10-3v-2l-8-1q-0.5-1.5-1-3c-3.891-.314-6.263-1.856-9-3h-3l-1-2h-2v-1h-2v-1h-3v-1h-3l-1-2-9-1c-1.65,2.367-.619.679-3,2v1h-3l-1,2-5,1v1h-2v1h-3v1h-3l-1,2h-3q-0.5,1-1,2h-2v1h-2v1h-3v1h-2v1l-6,1q-0.5,1-1,2h-3q-0.5,1-1,2h-3v1h-2v1l-4,1v1h-3v1h-2l-1,2h-3v1c-1.742.687-4.069-.57-5,1V789.06h-1v3h-1v2h-1Q332.42,795.559,331.919,797.059Z"/>
</svg>
